<?xml version="1.0" encoding="UTF-8" standalone="no"?>
<svg
   xmlns:svg="http://www.w3.org/2000/svg"
   xmlns="http://www.w3.org/2000/svg"
   xmlns:sodipodi="http://sodipodi.sourceforge.net/DTD/sodipodi-0.dtd"
   xmlns:inkscape="http://www.inkscape.org/namespaces/inkscape"
   viewBox="0 0 22 22"
   version="1.1"
   x="0px"
   y="0px"
   id="svg14"
   sodipodi:docname="alertIcon.svg"
   width="22"
   height="22"
   inkscape:version="0.92.4 (f8dce91, 2019-08-02)">
  <defs
     id="defs18" />
  <sodipodi:namedview
     pagecolor="#ffffff"
     bordercolor="#666666"
     borderopacity="1"
     objecttolerance="10"
     gridtolerance="10"
     guidetolerance="10"
     inkscape:pageopacity="0"
     inkscape:pageshadow="2"
     inkscape:window-width="1920"
     inkscape:window-height="960"
     id="namedview16"
     showgrid="false"
     inkscape:zoom="8.5818182"
     inkscape:cx="-18.247881"
     inkscape:cy="8.25"
     inkscape:window-x="0"
     inkscape:window-y="27"
     inkscape:window-maximized="1"
     inkscape:current-layer="svg14" />
  <g
     id="g8"
     style="fill:none;fill-rule:evenodd;stroke:none;stroke-width:1">
    <path
       d="M 11,22 C 17.075132,22 22,17.075132 22,11 22,4.9248677 17.075132,0 11,0 4.9248677,0 0,4.9248677 0,11 0,17.075132 4.9248677,22 11,22 Z m 0,-2 c 4.970563,0 9,-4.029437 9,-9 0,-4.9705628 -4.029437,-9 -9,-9 -4.9705628,0 -9,4.0294372 -9,9 0,4.970563 4.0294372,9 9,9 z M 10,6 h 2 v 7 h -2 z m 0,8 h 2 v 2 h -2 z"
       id="path6"
       inkscape:connector-curvature="0"
       style="fill:#ffff00" />
  </g>
</svg>
