<?xml version="1.0" encoding="UTF-8" standalone="no"?>
<svg
   xmlns:svg="http://www.w3.org/2000/svg"
   xmlns="http://www.w3.org/2000/svg"
   xmlns:sodipodi="http://sodipodi.sourceforge.net/DTD/sodipodi-0.dtd"
   xmlns:inkscape="http://www.inkscape.org/namespaces/inkscape"
   version="1.1"
   x="0px"
   y="0px"
   viewBox="0 0 20 20"
   enable-background="new 0 0 20 20"
   xml:space="preserve"
   id="svg12"
   sodipodi:docname="errorIcon.svg"
   width="20"
   height="20"
   inkscape:version="0.92.4 (f8dce91, 2019-08-02)"><defs
     id="defs16" /><sodipodi:namedview
     pagecolor="#ffffff"
     bordercolor="#666666"
     borderopacity="1"
     objecttolerance="10"
     gridtolerance="10"
     guidetolerance="10"
     inkscape:pageopacity="0"
     inkscape:pageshadow="2"
     inkscape:window-width="1920"
     inkscape:window-height="960"
     id="namedview14"
     showgrid="false"
     inkscape:zoom="9.44"
     inkscape:cx="10"
     inkscape:cy="7.5"
     inkscape:window-x="0"
     inkscape:window-y="27"
     inkscape:window-maximized="1"
     inkscape:current-layer="svg12" /><g
     id="g6"><path
       d="M 10,0 C 4.5,0 0,4.5 0,10 0,15.5 4.5,20 10,20 15.5,20 20,15.5 20,10 20,4.5 15.5,0 10,0 Z m 0,18 C 5.6,18 2,14.4 2,10 2,5.6 5.6,2 10,2 c 4.4,0 8,3.6 8,8 0,4.4 -3.6,8 -8,8 z"
       id="path2"
       inkscape:connector-curvature="0"
       style="fill:#ff0000" /><polygon
       points="6,7.4 8.6,10 6,12.6 7.4,14 10,11.4 12.6,14 14,12.6 11.4,10 14,7.4 12.6,6 10,8.6 7.4,6 "
       id="polygon4"
       style="fill:#ff0000" /></g></svg>