<?xml version="1.0" encoding="UTF-8" standalone="no"?>
<svg
   xmlns:svg="http://www.w3.org/2000/svg"
   xmlns="http://www.w3.org/2000/svg"
   xmlns:sodipodi="http://sodipodi.sourceforge.net/DTD/sodipodi-0.dtd"
   xmlns:inkscape="http://www.inkscape.org/namespaces/inkscape"
   height="94.930756"
   width="94.924911"
   version="1.1"
   x="0px"
   y="0px"
   viewBox="0 0 972.03109 972.09094"
   style="fill:#000000"
   xml:space="preserve"
   id="svg14"
   sodipodi:docname="okIcon.svg"
   inkscape:version="0.92.4 (f8dce91, 2019-08-02)"><defs
     id="defs18" /><sodipodi:namedview
     pagecolor="#ffffff"
     bordercolor="#666666"
     borderopacity="1"
     objecttolerance="10"
     gridtolerance="10"
     guidetolerance="10"
     inkscape:pageopacity="0"
     inkscape:pageshadow="2"
     inkscape:window-width="1920"
     inkscape:window-height="960"
     id="namedview16"
     showgrid="false"
     inkscape:zoom="2.36"
     inkscape:cx="47.463848"
     inkscape:cy="47.466363"
     inkscape:window-x="0"
     inkscape:window-y="27"
     inkscape:window-maximized="1"
     inkscape:current-layer="svg14" /><path
     d="m 677.6298,301.6354 c -9.8,9.8 -19.6,19.6 -29.5,29.5 -23.6,23.6 -47.1,47.1 -70.7,70.7 -28.4,28.4 -56.7,56.7 -85.1,85.1 -24.6,24.6 -49.2,49.2 -73.7,73.7 -11.8,11.8 -23.4,24 -35.5,35.5 -0.5,0.5 -1,0.9 -1.5,1.4 3.4,-2.6 6.7,-5.2 10.1,-7.8 -0.8,0.6 -1.6,1 -2.4,1.4 4,-1.7 8,-3.4 11.9,-5 -0.9,0.3 -1.7,0.6 -2.7,0.7 4.4,-0.6 8.9,-1.2 13.3,-1.8 -0.9,0.1 -1.8,0.1 -2.7,0 4.4,0.6 8.9,1.2 13.3,1.8 -0.9,-0.1 -1.8,-0.3 -2.7,-0.7 4,1.7 8,3.4 11.9,5 -0.9,-0.4 -1.7,-0.8 -2.4,-1.4 3.4,2.6 6.7,5.2 10.1,7.8 -5.3,-4.6 -10.1,-10 -15.1,-14.9 -11.5,-11.5 -22.9,-22.9 -34.4,-34.4 -25.9,-25.9 -51.7,-51.7 -77.6,-77.6 -6,-6 -11.9,-11.9 -17.9,-17.9 -9.1,-9.1 -22.5,-14.6 -35.4,-14.6 -12.3,0 -26.9,5.4 -35.4,14.6 -8.7,9.5 -15.2,22 -14.6,35.4 0.6,13.3 5.1,25.8 14.6,35.4 31.6,31.6 63.2,63.2 94.9,94.9 15.2,15.2 30.5,30.5 45.7,45.7 1.1,1.1 2.1,2.2 3.2,3.2 24.1,23.2 61.8,23.3 85.9,0.1 1.6,-1.5 3.2,-3.2 4.7,-4.7 29,-29 58.1,-58.1 87.1,-87.1 42.4,-42.4 84.7,-84.7 127.1,-127.1 25,-25 50.1,-49.7 74.9,-74.9 0.4,-0.4 0.8,-0.8 1.2,-1.2 9.1,-9.1 14.6,-22.5 14.6,-35.4 0,-12.3 -5.4,-26.9 -14.6,-35.4 -9.5,-8.7 -22,-15.2 -35.4,-14.6 -13.1,0.5 -25.6,5 -35.2,14.6 z"
     id="path2"
     style="fill:#34b382"
     inkscape:connector-curvature="0" /><path
     d="m 872.0298,486.0354 c 0,19.5 -1.3,39 -3.9,58.4 0.6,-4.4 1.2,-8.9 1.8,-13.3 -5.1,38 -15.2,75.1 -30,110.4 1.7,-4 3.4,-8 5,-11.9 -14.7,34.9 -33.9,67.7 -57,97.7 2.6,-3.4 5.2,-6.7 7.8,-10.1 -22.8,29.4 -49.2,55.8 -78.6,78.6 3.4,-2.6 6.7,-5.2 10.1,-7.8 -30,23.1 -62.8,42.3 -97.7,57 4,-1.7 8,-3.4 11.9,-5 -35.3,14.8 -72.5,24.9 -110.4,30 4.4,-0.6 8.9,-1.2 13.3,-1.8 -38.7,5.1 -78,5.1 -116.7,0 4.4,0.6 8.9,1.2 13.3,1.8 -38,-5.1 -75.1,-15.2 -110.4,-30 4,1.7 8,3.4 11.9,5 -34.9,-14.7 -67.7,-33.9 -97.7,-57 3.4,2.6 6.7,5.2 10.1,7.8 -29.4,-22.8 -55.8,-49.2 -78.6,-78.6 2.6,3.4 5.2,6.7 7.8,10.1 -23.1,-30 -42.3,-62.8 -57,-97.7 1.7,4 3.4,8 5,11.9 -14.8,-35.3 -24.9,-72.5 -30,-110.4 0.6,4.4 1.2,8.9 1.8,13.3 -5.099996,-38.7 -5.099996,-78 0,-116.7 -0.6,4.4 -1.2,8.9 -1.8,13.3 5.1,-38 15.2,-75.1 30,-110.4 -1.7,4 -3.4,8 -5,11.9 14.7,-34.9 33.9,-67.7 57,-97.7 -2.6,3.4 -5.2,6.7 -7.8,10.1 22.8,-29.4 49.2,-55.8 78.6,-78.6 -3.4,2.6 -6.7,5.2 -10.1,7.8 30,-23.1 62.8,-42.3 97.7,-57 -4,1.7 -8,3.4 -11.9,5 35.3,-14.8 72.5,-24.9 110.4,-30 -4.4,0.6 -8.9,1.2 -13.3,1.8 38.7,-5.100003 78,-5.100003 116.7,0 -4.4,-0.6 -8.9,-1.2 -13.3,-1.8 38,5.1 75.1,15.2 110.4,30 -4,-1.7 -8,-3.4 -11.9,-5 34.9,14.7 67.7,33.9 97.7,57 -3.4,-2.6 -6.7,-5.2 -10.1,-7.8 29.4,22.8 55.8,49.2 78.6,78.6 -2.6,-3.4 -5.2,-6.7 -7.8,-10.1 23.1,30 42.3,62.8 57,97.7 -1.7,-4 -3.4,-8 -5,-11.9 14.8,35.3 24.9,72.5 30,110.4 -0.6,-4.4 -1.2,-8.9 -1.8,-13.3 2.6,19.3 3.9,38.8 3.9,58.3 0,12.8 5.6,26.3 14.6,35.4 8.7,8.7 22.9,15.2 35.4,14.6 12.9,-0.6 26.3,-4.8 35.4,-14.6 9,-9.8 14.7,-21.8 14.6,-35.4 -0.1,-50 -7.6,-100.8 -23.1,-148.3 -15,-46 -36.4,-90.3 -64.5,-129.7 -15,-21.1 -31.3,-41.4 -49.3,-60 -18.1,-18.7 -37.8,-35.2 -58.5,-51.000003 -38.4,-29.6 -81.6,-51.9 -127.1,-68.7 -46.8,-17.2 -96.9,-26.0999998 -146.6,-27.99999976 -49.9,-1.90000004 -101,4.29999996 -149.1,17.89999976 -46.5,13.2 -91.9,33.5 -132.3,60.1 -40,26.300003 -76.9,58.100003 -107.4,95.100003 -16.499996,20 -31.999996,40.9 -45.299996,63.2 -13.5,22.5 -24.5,46.2 -34.4,70.4 -18.9,46.1 -29.1999997,95.1 -33.0999997,144.7 -3.9,50.3 0.9,101.8 12.7999997,150.9 11.4,47.1 30.6,93.2 55.8,134.6 24.8,40.8 55.799996,78.8 91.599996,110.5 36,31.9 76.3,59.4 120.2,79.2 24.1,10.9 48.7,20.5 74.1,27.6 26,7.2 52.6,11.6 79.4,14.7 50.3,5.8 101.3,2.5 150.8,-7.5 47.7,-9.6 94.4,-27.5 136.9,-51.1 41.8,-23.2 80.6,-53.3 113.6,-87.8 33.1,-34.6 61.8,-74.4 83.2,-117.3 21.9,-44 38,-90.9 45.5,-139.5 4.1,-26.5 6.8,-53 6.8,-79.8 0,-12.8 -5.6,-26.3 -14.6,-35.4 -8.7,-8.7 -22.9,-15.2 -35.4,-14.6 -12.9,0.6 -26.3,4.8 -35.4,14.6 -8.9,9.6 -14.6,21.6 -14.6,35.2 z"
     id="path8"
     style="fill:#34b382"
     inkscape:connector-curvature="0" /></svg>